<?xml version="1.0" encoding="utf-8"?><!-- Uploaded to: SVG Repo, www.svgrepo.com, Generator: SVG Repo Mixer Tools -->
<svg width="800px" height="800px" viewBox="0 0 24 24" fill="none" xmlns="http://www.w3.org/2000/svg">
<path fill-rule="evenodd" clip-rule="evenodd" d="M19.8206 5.1705C19.0181 3.7662 17.194 3.33558 15.8482 4.23275L14.9588 4.82567C12.8321 6.24349 10.3333 7.00008 7.77725 7.00008H6C3.79086 7.00008 2 8.79094 2 11.0001C2 13.1157 3.64244 14.8477 5.72178 14.9906L5.38148 16.3518C5.06822 17.6048 5.57649 18.9195 6.65117 19.636C8.10309 20.6039 10.0694 20.1617 10.9672 18.6654L12.6059 15.9342C13.4267 16.2641 14.2155 16.6789 14.9588 17.1745L15.8482 17.7674C17.194 18.6646 19.0181 18.2339 19.8206 16.8297C21.8847 13.2174 21.8847 8.7828 19.8206 5.1705ZM10.6415 15.3209C9.70759 15.109 8.74838 15.0004 7.78095 15.0001L7.32176 16.8368C7.2135 17.2699 7.38916 17.7242 7.76057 17.9719C8.26235 18.3064 8.9419 18.1536 9.25218 17.6364L10.6415 15.3209ZM16.9576 5.89685C17.3392 5.64244 17.8565 5.76455 18.0841 6.16278C19.7969 9.16021 19.7969 12.8399 18.0841 15.8374C17.8565 16.2356 17.3392 16.3577 16.9576 16.1033L16.0682 15.5104C13.613 13.8735 10.7281 13.0001 7.77725 13.0001H6C4.89543 13.0001 4 12.1046 4 11.0001C4 9.89551 4.89543 9.00008 6 9.00008H7.77725C10.7281 9.00008 13.613 8.12662 16.0682 6.48977L16.9576 5.89685Z" fill="#414952"/>
</svg>
