<svg xmlns:xlink="http://www.w3.org/1999/xlink" width="16" height="16" viewBox="0 0 16 16" fill="none" xmlns="http://www.w3.org/2000/svg"><path d="M15.2 13.6V14.024C15.1937 14.3381 15.0645 14.6372 14.8402 14.857C14.6158 15.0769 14.3141 15.2001 14 15.2H10V16H14C14.5304 16 15.0391 15.7893 15.4142 15.4142C15.7893 15.0391 16 14.5304 16 14V12.8C15.7748 13.1052 15.5052 13.3748 15.2 13.6Z" fill="#414952"></path><path d="M0 10.5839C0.049109 9.80103 0.327312 9.04988 0.8 8.42389V8.30389C0.289133 8.88313 0.00499042 9.62758 0 10.3999C0 10.4639 0 10.5199 0 10.5839Z" fill="#414952"></path><path d="M8 0C5.87827 0 3.84344 0.842855 2.34315 2.34315C0.842855 3.84344 0 5.87827 0 8H0C0.244633 7.6957 0.529976 7.42651 0.848 7.2C1.05156 5.44594 1.89262 3.82784 3.21126 2.65338C4.5299 1.47892 6.23417 0.829998 8 0.829998C9.76583 0.829998 11.4701 1.47892 12.7887 2.65338C14.1074 3.82784 14.9484 5.44594 15.152 7.2C15.47 7.42651 15.7554 7.6957 16 8C16 5.87827 15.1571 3.84344 13.6569 2.34315C12.1566 0.842855 10.1217 0 8 0V0Z" fill="#414952"></path><path d="M3.2 7.20001C2.35131 7.20001 1.53737 7.53715 0.937258 8.13727C0.337142 8.73739 0 9.55132 0 10.4C0 11.2487 0.337142 12.0626 0.937258 12.6628C1.53737 13.2629 2.35131 13.6 3.2 13.6V7.20001Z" fill="#8C9099"></path><path d="M12.8 13.6C13.6487 13.6 14.4626 13.2629 15.0627 12.6628C15.6628 12.0626 16 11.2487 16 10.4C16 9.55132 15.6628 8.73739 15.0627 8.13727C14.4626 7.53715 13.6487 7.20001 12.8 7.20001V13.6Z" fill="#8C9099"></path><path d="M3.20001 7.20001H4.00001C4.21219 7.20001 4.41567 7.2843 4.5657 7.43433C4.71573 7.58436 4.80001 7.78784 4.80001 8.00001V12.8C4.80001 13.0122 4.71573 13.2157 4.5657 13.3657C4.41567 13.5157 4.21219 13.6 4.00001 13.6H3.20001V7.20001Z" fill="#414952"></path><path d="M12 7.20001H12.8V13.6H12C11.7878 13.6 11.5844 13.5157 11.4343 13.3657C11.2843 13.2157 11.2 13.0122 11.2 12.8V8.00001C11.2 7.78784 11.2843 7.58436 11.4343 7.43433C11.5844 7.2843 11.7878 7.20001 12 7.20001Z" fill="#414952"></path><path d="M6.8 14H9.2C9.41217 14 9.61566 14.0843 9.76569 14.2343C9.91571 14.3843 10 14.5878 10 14.8V16H6.8C6.58783 16 6.38434 15.9157 6.23431 15.7657C6.08429 15.6157 6 15.4122 6 15.2V14.8C6 14.5878 6.08429 14.3843 6.23431 14.2343C6.38434 14.0843 6.58783 14 6.8 14Z" fill="#8C9099"></path></svg>